<svg width="666" height="121" xmlns="http://www.w3.org/2000/svg" xmlns:xlink="http://www.w3.org/1999/xlink" overflow="hidden"><defs><clipPath id="clip0"><rect x="42" y="40" width="666" height="121"/></clipPath><clipPath id="clip1"><rect x="42" y="41" width="665" height="119"/></clipPath><clipPath id="clip2"><rect x="42" y="41" width="665" height="119"/></clipPath><clipPath id="clip3"><rect x="42" y="40" width="665" height="137"/></clipPath><clipPath id="clip4"><rect x="42" y="40" width="665" height="137"/></clipPath><clipPath id="clip5"><rect x="42" y="41" width="119" height="119"/></clipPath><clipPath id="clip6"><rect x="42" y="41" width="119" height="119"/></clipPath><clipPath id="clip7"><rect x="42" y="41" width="119" height="119"/></clipPath><clipPath id="clip8"><rect x="42" y="41" width="119" height="119"/></clipPath><clipPath id="clip9"><rect x="65" y="65" width="72" height="71"/></clipPath><clipPath id="clip10"><rect x="65" y="65" width="72" height="71"/></clipPath><clipPath id="clip11"><rect x="65" y="65" width="72" height="71"/></clipPath></defs><g clip-path="url(#clip0)" transform="translate(-42 -40)"><g clip-path="url(#clip1)"><g clip-path="url(#clip2)"><g clip-path="url(#clip3)"><g clip-path="url(#clip4)"><g clip-path="url(#clip5)"><g clip-path="url(#clip6)"><g clip-path="url(#clip7)"><g clip-path="url(#clip8)"><path d="M185.297 140.993C185.297 108.683 211.489 82.4897 243.8 82.4897 276.111 82.4897 302.304 108.683 302.304 140.993 302.304 173.304 276.111 199.496 243.8 199.496 211.489 199.496 185.297 173.304 185.297 140.993Z" fill="#1BC56A" fill-rule="evenodd" transform="matrix(1.0062 0 0 1 -144.2 -40.7251)"/><g clip-path="url(#clip9)"><g clip-path="url(#clip10)"><g clip-path="url(#clip11)"><path d="M68.0059 35.6012C67.9615 34.8451 67.9038 34.0751 67.8236 33.2886 67.6737 31.8231 67.202 30.3963 66.3886 29.1692 60.7219 20.6552 43.2556 25.9658 32.8715 27.6072 31.7327 27.7874 30.6002 28.0062 29.4733 28.2418 10.5796 32.2266 11.2495 21.267 13.1244 14.7866L15.4724 16.1596C24.7391 21.2469 28.0981 17.0966 29.1353 14.9917 29.2227 14.8187 29.1529 14.6078 28.9799 14.5206 28.8996 14.4802 28.8071 14.4721 28.721 14.498 27.8295 14.7805 26.2351 14.4911 24.0424 10.9505 20.5343 5.27947 15.0353 9.98367 15.0353 9.98367 15.0353 9.98367 16.4426 2.88453 9.77995 2.609 5.61991 2.43636 4.58474 1.18572 4.39346 0.270707 4.34894 0.081749 4.15966-0.0353439 3.9707 0.00917216 3.88521 0.0293136 3.81036 0.0807339 3.76088 0.153308 2.43498 2.09037 0.465447 7.05286 9.44362 12.6334L11.5609 13.8716C-8.21786 36.1504 0.749967 47.7432 13.4828 57.8924 16.067 62.7093 3.68078 62.3321 3.68078 62.3321 11.2612 70.1211 17.9839 70.0797 22.7642 68.1462 24.8468 67.3042 26.5625 66.1075 27.8192 65.0386 30.8418 65.8721 33.9468 66.3698 37.0784 66.5231 53.4506 67.2987 69.2303 58.175 68.0059 35.6012Z" fill="#241F20" transform="matrix(1.00812 0 0 1 66.7986 65.6533)"/><path d="M38.0798 64.3858C35.2571 64.2483 32.4582 63.8003 29.7335 63.0497 51.9734 54.6086 45.9392 45.5187 51.9107 38.0286 56.0056 32.8881 62.3694 34.8051 65.9568 36.5107 67.0604 56.8586 52.8376 65.0828 38.0798 64.3858Z" fill="#FFFFFF" transform="matrix(1.00812 0 0 1 66.7986 65.6533)"/><path d="M41.9181 33.1131C42.6204 33.1116 43.3014 33.3559 43.8426 33.8036 44.4486 32.7409 44.0781 31.3878 43.015 30.782 41.9522 30.176 40.5994 30.5466 39.9934 31.6096 39.6058 32.2897 39.6058 33.1237 39.9934 33.8036 40.5347 33.3559 41.2156 33.1116 41.9181 33.1131Z" fill="#FFFFFF" transform="matrix(1.00812 0 0 1 66.7986 65.6533)"/></g></g></g></g></g></g></g><text fill="#F2F2F2" font-family="Montserrat,Montserrat_MSFontService,sans-serif" font-weight="700" font-size="43" transform="matrix(1.47778 0 0 1.46868 178.941 122)">Watcher News</text></g></g></g></g></g></svg>